# xmcd
#
# Track frame offsets:
#	150
#	8907
#	19632
#	32997
#	51085
#	63160
#	72025
#	84775
#	96335
#	105547
#	121057
#	141297
#	150100
#	162960
#	171030
#	175905
#	185217
#	193167
#	203522
#	211472
#	223397
#	238585
#	255505
#
# Disc length: 3636 seconds
#
# Revision: 0
# Processed by: cddbd v1.5PL3 Copyright (c) Steve Scherf et al.
# Submitted via: EasyCDDAExtractor 4.5.0.2
#
DISCID=380e3217
DTITLE=диажояои - то дглотийо тяацоуди вхес йаи сглеяа
DYEAR=2003
DGENRE=Ethnic
TTITLE0=лгко лоу йоййимо
TTITLE1=ти 'хека йаи с' ацапоуса
TTITLE2=с' ауто т' акыми то жаяду
TTITLE3=о лпаялпа циаммайайгс
TTITLE4=о гкиос басикеуеи
TTITLE5=сйаки йаке лоу сйаки
TTITLE6=се еида ма йкадеуеис
TTITLE7=тыяа поу стгсам то вояо
TTITLE8=о пы пы лаяиа
TTITLE9=паидиа тгс салаяимас
TTITLE10=ле цекасе лиа ваяауцг
TTITLE11=о диослос йаи о басикийос
TTITLE12=г ваиды
TTITLE13=г ьаяопоука
TTITLE14=ха паяо лиа ьаяобаяйа
TTITLE15=поиос лыяо лоу поиос
TTITLE16=о алаяамтос
TTITLE17=патеяа лас лецакысес
TTITLE18=аута та латиа та цкуйа
TTITLE19=г йакубиытисса
TTITLE20=хакассайи
TTITLE21=лес тоу аицаиоу та мисиа
TTITLE22=с' ацапы циати еисаи ыяаиа
EXTD=
EXTT0=
EXTT1=
EXTT2=
EXTT3=
EXTT4=
EXTT5=
EXTT6=
EXTT7=
EXTT8=
EXTT9=
EXTT10=
EXTT11=
EXTT12=
EXTT13=
EXTT14=
EXTT15=
EXTT16=
EXTT17=
EXTT18=
EXTT19=
EXTT20=
EXTT21=
EXTT22=
PLAYORDER=
